<svg id="Capa_1" enable-background="new 0 0 512 512" height="512" viewBox="0 0 512 512" width="512" xmlns="http://www.w3.org/2000/svg"><g><g><path d="m420.284 0h-360.284c-33.084 0-60 26.916-60 60v392c0 33.084 26.916 60 60 60h392c33.084 0 60-26.916 60-60v-360.284zm-263.284 40h119v76h40v-76h40v96c0 11.028-8.972 20-20 20h-159c-11.028 0-20-8.972-20-20zm239 432h-279v-176c0-11.028 8.972-20 20-20h239c11.028 0 20 8.972 20 20zm76-20c0 11.028-8.972 20-20 20h-16v-176c0-33.084-26.916-60-60-60h-239c-33.084 0-60 26.916-60 60v176h-17c-11.028 0-20-8.972-20-20v-392c0-11.028 8.972-20 20-20h57v96c0 33.084 26.916 60 60 60h159c33.084 0 60-26.916 60-60v-96h7.716l68.284 68.284z"/></g></g></svg>