<svg id="Layer_1" enable-background="new 0 0 20 20" height="512" viewBox="0 0 20 20" width="512" xmlns="http://www.w3.org/2000/svg"><g fill="rgb(0,0,0)"><path d="m17.6 14.6-1.6 1.6v-16.2h-2v16.2l-1.5-1.6-1.4 1.5 3.9 3.9 4-3.9z"/><path d="m1.3 7.3c-.3.3-.3.8-.2 1.1.2.4.5.6.9.6h7v-2h-4.8l4.6-5.3c.2-.3.3-.8.1-1.1-.1-.4-.5-.6-.9-.6h-7v2h4.8z"/><path d="m5.9 11.6c-.1-.4-.5-.6-.9-.6s-.8.2-.9.6l-3 7c-.2.5 0 1.1.5 1.3.1.1.9.3 1.3-.5l.6-1.4h3l.6 1.4c.2.5.8.7 1.3.5s.7-.8.5-1.3zm-1.5 4.4.6-1.5.6 1.5z"/></g></svg>