<svg aria-hidden="true" version="1.1" xmlns="http://www.w3.org/2000/svg" xmlns:xlink="http://www.w3.org/1999/xlink">
<defs>
<symbol id="back" viewBox="0 0 219.151 219.151">
  <g>
    <path d="M109.576,219.151c60.419,0,109.573-49.156,109.573-109.576C219.149,49.156,169.995,0,109.576,0S0.002,49.156,0.002,109.575
      C0.002,169.995,49.157,219.151,109.576,219.151z M109.576,15c52.148,0,94.573,42.426,94.574,94.575
      c0,52.149-42.425,94.575-94.574,94.576c-52.148-0.001-94.573-42.427-94.573-94.577C15.003,57.427,57.428,15,109.576,15z"/>
    <path d="M94.861,156.507c2.929,2.928,7.678,2.927,10.606,0c2.93-2.93,2.93-7.678-0.001-10.608l-28.82-28.819l83.457-0.008
      c4.142-0.001,7.499-3.358,7.499-7.502c-0.001-4.142-3.358-7.498-7.5-7.498l-83.46,0.008l28.827-28.825
      c2.929-2.929,2.929-7.679,0-10.607c-1.465-1.464-3.384-2.197-5.304-2.197c-1.919,0-3.838,0.733-5.303,2.196l-41.629,41.628
      c-1.407,1.406-2.197,3.313-2.197,5.303c0.001,1.99,0.791,3.896,2.198,5.305L94.861,156.507z"/>
  </g>
</symbol>

<symbol id="del" viewBox="0 0 512 512">
<g>
  <path d="m170.8 14.221a14.21 14.21 0 0 1 14.2-14.207l141.991-.008a14.233 14.233 0 0 1 14.2 14.223v35.117h-170.391zm233.461 477.443a21.75 21.75 0 0 1 -21.856 20.33h-254.451a21.968 21.968 0 0 1 -21.854-20.416l-21.774-318.518h343.174l-23.234 318.6zm56.568-347.452h-409.658v-33a33.035 33.035 0 0 1 33.005-33.012l343.644-.011a33.051 33.051 0 0 1 33 33.02v33zm-270.79 291.851a14.422 14.422 0 1 0 28.844 0v-202.247a14.42 14.42 0 0 0 -28.839-.01v202.257zm102.9 0a14.424 14.424 0 1 0 28.848 0v-202.247a14.422 14.422 0 0 0 -28.843-.01z" />
  </g>
</symbol>

<symbol id="search" viewBox="0 0 461.516 461.516">
  <g><path d="m185.746 371.332c41.251.001 81.322-13.762 113.866-39.11l122.778 122.778c9.172 8.858 23.787 8.604 32.645-.568 8.641-8.947 8.641-23.131 0-32.077l-122.778-122.778c62.899-80.968 48.252-197.595-32.716-260.494s-197.594-48.252-260.493 32.716-48.252 197.595 32.716 260.494c32.597 25.323 72.704 39.06 113.982 39.039zm-98.651-284.273c54.484-54.485 142.82-54.486 197.305-.002s54.486 142.82.002 197.305-142.82 54.486-197.305.002c-.001-.001-.001-.001-.002-.002-54.484-54.087-54.805-142.101-.718-196.585.239-.24.478-.479.718-.718z"/></g>
</symbol>

<symbol id="next" viewBox="0 0 512 512">
  <g>
	<g>
		<g>
			<path d="M256,0C114.618,0,0,114.618,0,256s114.618,256,256,256s256-114.618,256-256S397.382,0,256,0z M256,469.333
				c-117.818,0-213.333-95.515-213.333-213.333S138.182,42.667,256,42.667S469.333,138.182,469.333,256S373.818,469.333,256,469.333
				z"/>
			<path d="M228.418,134.248c-8.331-8.331-21.839-8.331-30.17,0c-8.331,8.331-8.331,21.839,0,30.17L289.83,256l-91.582,91.582
				c-8.331,8.331-8.331,21.839,0,30.17c8.331,8.331,21.839,8.331,30.17,0l106.667-106.667c8.331-8.331,8.331-21.839,0-30.17
				L228.418,134.248z"/>
		</g>
	</g>
</g>
</symbol>
<symbol id="upload" viewBox="0 0 24 24">
  <path d="M22,13a1,1,0,0,0-1,1v4.213A2.79,2.79,0,0,1,18.213,21H5.787A2.79,2.79,0,0,1,3,18.213V14a1,1,0,0,0-2,0v4.213A4.792,4.792,0,0,0,5.787,23H18.213A4.792,4.792,0,0,0,23,18.213V14A1,1,0,0,0,22,13Z"/><path d="M6.707,8.707,11,4.414V17a1,1,0,0,0,2,0V4.414l4.293,4.293a1,1,0,0,0,1.414-1.414l-6-6a1,1,0,0,0-1.414,0l-6,6A1,1,0,0,0,6.707,8.707Z"/>
</symbol>
<symbol id="add" viewBox="0 0 512 512">
  <g><g><path d="m420.284 0h-360.284c-33.084 0-60 26.916-60 60v392c0 33.084 26.916 60 60 60h392c33.084 0 60-26.916 60-60v-360.284zm-263.284 40h119v76h40v-76h40v96c0 11.028-8.972 20-20 20h-159c-11.028 0-20-8.972-20-20zm239 432h-279v-176c0-11.028 8.972-20 20-20h239c11.028 0 20 8.972 20 20zm76-20c0 11.028-8.972 20-20 20h-16v-176c0-33.084-26.916-60-60-60h-239c-33.084 0-60 26.916-60 60v176h-17c-11.028 0-20-8.972-20-20v-392c0-11.028 8.972-20 20-20h57v96c0 33.084 26.916 60 60 60h159c33.084 0 60-26.916 60-60v-96h7.716l68.284 68.284z"/></g></g>
</symbol>

</defs>
</svg>
