<?xml version="1.0" standalone="no"?>
<!DOCTYPE svg PUBLIC "-//W3C//DTD SVG 20010904//EN"
 "http://www.w3.org/TR/2001/REC-SVG-20010904/DTD/svg10.dtd">
<svg version="1.0" xmlns="http://www.w3.org/2000/svg"
 width="700.000000pt" height="700.000000pt" viewBox="0 0 700.000000 700.000000"
 preserveAspectRatio="xMidYMid meet">
<metadata>
Created by potrace 1.14, written by Peter Selinger 2001-2017
</metadata>
<g transform="translate(0.000000,700.000000) scale(0.100000,-0.100000)"
fill="#000000" stroke="none">
<path d="M3230 6638 c-58 -10 -123 -20 -145 -23 -22 -3 -47 -8 -55 -10 -8 -2
-33 -6 -55 -10 -22 -3 -121 -19 -220 -36 -99 -16 -196 -32 -215 -34 -19 -3
-60 -10 -90 -15 -45 -8 -207 -35 -405 -66 -16 -3 -70 -12 -120 -20 -49 -8
-101 -17 -115 -19 -14 -2 -69 -11 -123 -20 -54 -9 -111 -18 -128 -20 -17 -2
-42 -6 -57 -9 -15 -3 -43 -8 -62 -11 -19 -3 -60 -10 -90 -15 -67 -11 -102 -17
-155 -25 -23 -3 -52 -8 -65 -10 -14 -3 -108 -19 -210 -35 -102 -17 -196 -33
-210 -35 -14 -3 -46 -8 -73 -11 -42 -6 -46 -9 -35 -23 10 -13 8 -12 -8 1 -20
17 -22 17 -65 -10 -82 -53 -131 -131 -146 -232 -10 -66 -10 -745 0 -779 7 -25
33 -69 51 -86 12 -11 40 -29 181 -120 50 -31 104 -66 120 -77 l31 -20 -1 -452
c-1 -377 1 -458 13 -496 29 -85 52 -110 161 -181 59 -38 111 -72 117 -76 5 -4
18 -12 27 -18 87 -52 317 -201 317 -206 0 -6 -72 -55 -300 -204 -356 -233
-404 -264 -882 -578 -81 -54 -151 -97 -157 -97 -5 0 -22 -16 -36 -35 -23 -29
-26 -41 -21 -77 8 -54 39 -86 101 -102 l49 -12 32 -130 c18 -71 35 -145 38
-164 3 -19 8 -46 11 -60 37 -168 22 -358 -51 -655 -32 -132 -38 -145 -62 -138
-32 8 -89 -25 -107 -63 -30 -63 0 -131 67 -153 27 -8 225 -46 403 -76 17 -3
39 -7 50 -9 39 -8 191 -35 225 -40 19 -3 46 -8 60 -11 14 -3 63 -12 110 -20
84 -15 113 -20 168 -30 15 -3 55 -10 89 -15 34 -6 68 -12 75 -15 7 -2 30 -6
51 -9 20 -3 97 -17 170 -30 152 -28 166 -31 227 -41 25 -4 54 -9 65 -12 11 -2
31 -6 45 -8 14 -2 77 -13 140 -25 63 -12 124 -23 135 -24 27 -5 241 -43 285
-51 19 -4 44 -8 55 -10 11 -1 58 -9 105 -18 47 -9 99 -19 115 -21 17 -3 41 -8
55 -11 39 -7 81 -14 130 -21 25 -3 48 -8 51 -10 3 -2 34 -8 70 -14 71 -11 61
-9 284 -50 88 -16 174 -32 190 -34 17 -3 54 -10 84 -16 73 -14 125 -13 165 4
24 10 614 423 711 498 6 5 57 42 115 82 58 41 110 79 115 83 6 5 48 35 95 68
47 33 90 63 95 67 6 5 42 30 80 58 39 27 75 53 80 57 6 5 21 16 35 25 80 54
635 452 640 459 3 4 19 15 35 25 100 62 465 332 488 362 49 63 61 127 62 327
1 100 4 186 8 192 4 6 35 14 69 18 35 4 72 9 83 11 33 7 317 53 360 59 22 3
49 8 61 10 12 3 39 7 60 11 60 9 94 32 111 72 13 32 14 42 2 76 -18 50 -57 80
-103 78 -38 -1 -41 4 -65 113 -84 375 -83 551 0 828 18 57 25 68 47 73 70 15
95 28 113 58 10 17 19 41 19 54 0 39 -26 86 -56 102 -26 13 -126 72 -454 265
-58 33 -112 65 -120 69 -8 4 -24 12 -35 19 -17 11 -60 36 -140 84 -11 7 -27
16 -35 20 -8 4 -71 41 -140 82 -69 41 -192 113 -275 161 -190 110 -429 251
-433 255 -2 2 2 20 9 40 9 25 21 37 39 41 74 15 100 27 120 54 26 36 28 88 6
122 -13 20 -166 114 -331 204 -28 14 -249 142 -490 281 -66 39 -127 73 -135
77 -8 3 -28 15 -45 25 -16 11 -46 28 -65 39 -19 11 -156 89 -305 174 -148 86
-286 164 -305 175 -19 11 -94 54 -167 96 -72 43 -136 77 -141 77 -5 0 -15 6
-21 14 -16 19 -101 60 -126 61 -11 1 -67 -7 -125 -17z"/>
</g>
</svg>
